<svg xmlns="http://www.w3.org/2000/svg" width="128" height="128" viewBox="0 0 128 128">
  <defs>
    <linearGradient id="bg" x1="0%" y1="0%" x2="100%" y2="100%">
      <stop offset="0%" style="stop-color:#10b981;stop-opacity:1" />
      <stop offset="100%" style="stop-color:#0d9488;stop-opacity:1" />
    </linearGradient>
    <linearGradient id="calc" x1="0%" y1="0%" x2="100%" y2="100%">
      <stop offset="0%" style="stop-color:#ffffff;stop-opacity:1" />
      <stop offset="100%" style="stop-color:#f0fdf4;stop-opacity:1" />
    </linearGradient>
  </defs>
  
  <!-- Background circle -->
  <circle cx="64" cy="64" r="56" fill="url(#bg)" stroke="#059669" stroke-width="2"/>
  
  <!-- Calculator body -->
  <rect x="42" y="36" width="44" height="56" rx="6" fill="url(#calc)" stroke="#059669" stroke-width="1.5"/>
  
  <!-- Calculator screen -->
  <rect x="46" y="40" width="36" height="12" rx="2" fill="#065f46" opacity="0.8"/>
  
  <!-- Calculator buttons (3x4 grid) -->
  <circle cx="50" cy="60" r="3" fill="#10b981"/>
  <circle cx="58" cy="60" r="3" fill="#10b981"/>
  <circle cx="66" cy="60" r="3" fill="#10b981"/>
  <circle cx="74" cy="60" r="3" fill="#10b981"/>
  
  <circle cx="50" cy="70" r="3" fill="#10b981"/>
  <circle cx="58" cy="70" r="3" fill="#10b981"/>
  <circle cx="66" cy="70" r="3" fill="#10b981"/>
  <circle cx="74" cy="70" r="3" fill="#10b981"/>
  
  <circle cx="50" cy="80" r="3" fill="#10b981"/>
  <circle cx="58" cy="80" r="3" fill="#10b981"/>
  <circle cx="66" cy="80" r="3" fill="#10b981"/>
  <circle cx="74" cy="80" r="3" fill="#059669"/>
  
  <!-- Two people icons (simplified) -->
  <!-- Person 1 -->
  <circle cx="28" cy="24" r="6" fill="#ffffff" opacity="0.9"/>
  <ellipse cx="28" cy="36" rx="8" ry="6" fill="#ffffff" opacity="0.9"/>
  
  <!-- Person 2 -->
  <circle cx="100" cy="24" r="6" fill="#ffffff" opacity="0.9"/>
  <ellipse cx="100" cy="36" rx="8" ry="6" fill="#ffffff" opacity="0.9"/>
  
  <!-- Heart between people -->
  <path d="M60 20 C58 16, 52 16, 52 22 C52 16, 46 16, 44 20 C44 24, 52 32, 52 32 S60 24, 60 20 Z" fill="#ef4444" opacity="0.8"/>
  
  <!-- Connecting lines (subtle) -->
  <path d="M36 30 Q50 26 42 40" stroke="#ffffff" stroke-width="1" fill="none" opacity="0.5"/>
  <path d="M92 30 Q78 26 86 40" stroke="#ffffff" stroke-width="1" fill="none" opacity="0.5"/>
</svg>